<svg xmlns="http://www.w3.org/2000/svg" version="1.1" xmlns:xlink="http://www.w3.org/1999/xlink" xmlns:svgjs="http://svgjs.dev/svgjs" width="2000" height="1500" viewBox="0 0 2000 1500"><rect width="2000" height="1500" fill="#000000"></rect><g transform="matrix(0.4880429477794046,0,0,0.4880429477794046,511.3373794321286,250.4048582995951)"><svg viewBox="0 0 241 247" data-background-color="#ffffff" preserveAspectRatio="xMidYMid meet" height="2049" width="2000" xmlns="http://www.w3.org/2000/svg" xmlns:xlink="http://www.w3.org/1999/xlink"><g id="tight-bounds" transform="matrix(1,0,0,1,0.1529999999999916,-0.09999999999999432)"><svg viewBox="0 0 240.69381497326202 247.2" height="247.2" width="240.69381497326202"><g><svg></svg></g><g><svg viewBox="0 0 240.69381497326202 247.2" height="247.2" width="240.69381497326202"><g transform="matrix(1,0,0,1,0,47.215199999999996)"><svg viewBox="0 0 240.69381497326202 152.7696" height="152.7696" width="240.69381497326202"><g><svg viewBox="0 0 240.69381497326202 152.7696" height="152.7696" width="240.69381497326202"><g><svg viewBox="0 0 240.69381497326202 152.7696" height="152.7696" width="240.69381497326202"><g id="textblocktransform"><svg viewBox="0 0 240.69381497326202 152.7696" height="152.7696" width="240.69381497326202" id="textblock"><g><svg viewBox="0 0 240.69381497326202 152.7696" height="152.7696" width="240.69381497326202"><g transform="matrix(1,0,0,1,0,0)"><svg width="240.69381497326202" viewBox="2.0799999237060547 -36.040000915527344 57.529998779296875 36.53000259399414" height="152.7696" data-palette-color="#ff0000"><path d="M19.36-8.98L19.36-8.98Q19.36-11.65 17.92-13.06 16.48-14.48 12.72-15.82 8.96-17.16 6.97-18.64 4.98-20.12 3.99-22.01 3-23.9 3-26.34L3-26.34Q3-30.57 5.82-33.3 8.64-36.04 13.21-36.04L13.21-36.04Q16.33-36.04 18.77-34.63 21.22-33.23 22.53-30.74 23.85-28.25 23.85-25.27L23.85-25.27 19.36-25.27Q19.36-28.56 17.77-30.37 16.19-32.18 13.21-32.18L13.21-32.18Q10.5-32.18 9.01-30.66 7.52-29.15 7.52-26.42L7.52-26.42Q7.52-24.17 9.13-22.66 10.74-21.14 14.11-19.95L14.11-19.95Q19.36-18.21 21.62-15.67 23.88-13.13 23.88-9.03L23.88-9.03Q23.88-4.71 21.07-2.11 18.26 0.49 13.43 0.49L13.43 0.49Q10.33 0.49 7.7-0.87 5.08-2.22 3.58-4.68 2.08-7.13 2.08-10.3L2.08-10.3 6.57-10.3Q6.57-7.01 8.41-5.18 10.25-3.34 13.43-3.34L13.43-3.34Q16.38-3.34 17.87-4.86 19.36-6.37 19.36-8.98ZM45.67-35.55L45.67-3.83 59.61-3.83 59.61 0 41.18 0 41.18-35.55 45.67-35.55Z" opacity="1" transform="matrix(1,0,0,1,0,0)" fill="#ffffff" class="wordmark-text-0" data-fill-palette-color="primary" id="text-0"></path></svg></g></svg></g></svg></g></svg></g><g></g></svg></g></svg></g><path d="M0 41.215L0 1 240.694 1 240.694 41.215 226.917 41.215 226.917 14.777 13.777 14.777 13.777 41.215 0 41.215M0 205.985L0 246.2 240.694 246.2 240.694 205.985 226.917 205.985 226.917 232.423 13.777 232.423 13.777 205.985 0 205.985" fill="#ffffff" stroke="transparent" data-fill-palette-color="primary"></path></svg></g><defs></defs></svg><rect width="240.69381497326202" height="247.2" fill="none" stroke="none" visibility="hidden"></rect></g></svg></g></svg>